<svg xmlns="http://www.w3.org/2000/svg" width="805" height="600"><rect width="805" height="600" x="0" y="0" fill="#FFFFFF" id="background"/><g id="viz"><clipPath id="serieClipPath"><rect x="-50" y="-10" width="805" height="600"/></clipPath><g transform="translate(0,0)"><g transform="translate(50,10)" clip-path="url(#serieClipPath)"><g id="axis"><g transform="translate(0,456)" fill="none" font-size="10" font-family="sans-serif" text-anchor="middle"><path class="domain" stroke="currentColor" d="M0,6V0H740V6"/><g class="tick" opacity="1" transform="translate(0,0)"><line stroke="currentColor" y2="6"/><text fill="currentColor" y="9" dy="0.71em">May</text></g><g class="tick" opacity="1" transform="translate(68.27380952380953,0)"><line stroke="currentColor" y2="6"/><text fill="currentColor" y="9" dy="0.71em">June</text></g><g class="tick" opacity="1" transform="translate(134.3452380952381,0)"><line stroke="currentColor" y2="6"/><text fill="currentColor" y="9" dy="0.71em">July</text></g><g class="tick" opacity="1" transform="translate(202.61904761904765,0)"><line stroke="currentColor" y2="6"/><text fill="currentColor" y="9" dy="0.71em">August</text></g><g class="tick" opacity="1" transform="translate(270.8928571428571,0)"><line stroke="currentColor" y2="6"/><text fill="currentColor" y="9" dy="0.71em">September</text></g><g class="tick" opacity="1" transform="translate(336.9642857142857,0)"><line stroke="currentColor" y2="6"/><text fill="currentColor" y="9" dy="0.71em">October</text></g><g class="tick" opacity="1" transform="translate(405.2380952380953,0)"><line stroke="currentColor" y2="6"/><text fill="currentColor" y="9" dy="0.71em">November</text></g><g class="tick" opacity="1" transform="translate(471.3095238095238,0)"><line stroke="currentColor" y2="6"/><text fill="currentColor" y="9" dy="0.71em">December</text></g><g class="tick" opacity="1" transform="translate(539.5833333333333,0)"><line stroke="currentColor" y2="6"/><text fill="currentColor" y="9" dy="0.71em">2024</text></g><g class="tick" opacity="1" transform="translate(607.8571428571429,0)"><line stroke="currentColor" y2="6"/><text fill="currentColor" y="9" dy="0.71em">February</text></g><g class="tick" opacity="1" transform="translate(671.7261904761905,0)"><line stroke="currentColor" y2="6"/><text fill="currentColor" y="9" dy="0.71em">March</text></g><g class="tick" opacity="1" transform="translate(740,0)"><line stroke="currentColor" y2="6"/><text fill="currentColor" y="9" dy="0.71em">April</text></g><text x="740" dy="-5" text-anchor="end" style="font-family: Arial, sans-serif; font-size: 12px; fill: rgb(123, 123, 123); font-weight: bold;">Fecha</text></g><g transform="translate(0,0)" fill="none" font-size="10" font-family="sans-serif" text-anchor="end"><path class="domain" stroke="currentColor" d="M0,570V0"/><g class="tick" opacity="1" transform="translate(0,570)"><line stroke="currentColor" x2="-6"/><text fill="currentColor" x="-9" dy="0.32em">−100,000</text></g><g class="tick" opacity="1" transform="translate(0,513)"><line stroke="currentColor" x2="-6"/><text fill="currentColor" x="-9" dy="0.32em">−50,000</text></g><g class="tick" opacity="1" transform="translate(0,456)"><line stroke="currentColor" x2="-6"/><text fill="currentColor" x="-9" dy="0.32em">0</text></g><g class="tick" opacity="1" transform="translate(0,399)"><line stroke="currentColor" x2="-6"/><text fill="currentColor" x="-9" dy="0.32em">50,000</text></g><g class="tick" opacity="1" transform="translate(0,342)"><line stroke="currentColor" x2="-6"/><text fill="currentColor" x="-9" dy="0.32em">100,000</text></g><g class="tick" opacity="1" transform="translate(0,285)"><line stroke="currentColor" x2="-6"/><text fill="currentColor" x="-9" dy="0.32em">150,000</text></g><g class="tick" opacity="1" transform="translate(0,228)"><line stroke="currentColor" x2="-6"/><text fill="currentColor" x="-9" dy="0.32em">200,000</text></g><g class="tick" opacity="1" transform="translate(0,171.00000000000003)"><line stroke="currentColor" x2="-6"/><text fill="currentColor" x="-9" dy="0.32em">250,000</text></g><g class="tick" opacity="1" transform="translate(0,113.99999999999997)"><line stroke="currentColor" x2="-6"/><text fill="currentColor" x="-9" dy="0.32em">300,000</text></g><g class="tick" opacity="1" transform="translate(0,56.999999999999986)"><line stroke="currentColor" x2="-6"/><text fill="currentColor" x="-9" dy="0.32em">350,000</text></g><g class="tick" opacity="1" transform="translate(0,0)"><line stroke="currentColor" x2="-6"/><text fill="currentColor" x="-9" dy="0.32em">400,000</text></g><text x="4" text-anchor="start" dominant-baseline="hanging" style="font-family: Arial, sans-serif; font-size: 12px; fill: rgb(123, 123, 123); font-weight: bold;">Monto</text></g></g><g id="viz"><g id="Ingreso"><path d="M66.07142857142857,388.17C99.10714285714286,388.17,99.10714285714286,330.999,132.14285714285714,330.999C162.97619047619048,330.999,162.97619047619048,330.999,193.80952380952382,330.999C231.25,330.999,231.25,330.999,268.6904761904762,330.999C300.625,330.999,300.625,306.73980000000006,332.5595238095238,306.73980000000006C367.79761904761904,306.73980000000006,367.79761904761904,287.793,403.0357142857143,287.793C411.8452380952381,287.793,411.8452380952381,453.03599999999994,420.65476190476187,453.03599999999994C444.88095238095235,453.03599999999994,444.88095238095235,266.418,469.10714285714283,266.418C496.6369047619048,266.418,496.6369047619048,453.6972,524.1666666666667,453.6972C528.5714285714287,453.6972,528.5714285714287,242.3412,532.9761904761905,242.3412C569.3154761904761,242.3412,569.3154761904761,192.13560000000004,605.6547619047619,192.13560000000004C637.5892857142858,192.13560000000004,637.5892857142858,130.13099999999997,669.5238095238095,130.13099999999997C701.4583333333333,130.13099999999997,701.4583333333333,55.17486000000003,733.3928571428571,55.17486000000003" stroke="#ff7f0e" fill="none"/><text font-family="sans-serif" font-size="10" class="labels" x="733.3928571428571" y="55.17486000000003" dx="0" dy="-4" text-anchor="middle">Ingreso</text></g><g id="Gasto"><path d="M123.33333333333333,461.22918000000004C127.73809523809524,461.22918000000004,127.73809523809524,461.09921999999995,132.14285714285714,461.09921999999995C133.24404761904762,461.09921999999995,133.24404761904762,461.22918000000004,134.3452380952381,461.22918000000004C167.38095238095238,461.22918000000004,167.38095238095238,462.60174,200.41666666666666,462.60174C201.51785714285717,462.60174,201.51785714285717,461.22918000000004,202.61904761904765,461.22918000000004C204.82142857142858,461.22918000000004,204.82142857142858,478.79999999999995,207.02380952380952,478.79999999999995C210.32738095238093,478.79999999999995,210.32738095238093,476.52,213.63095238095235,476.52C214.73214285714283,476.52,214.73214285714283,458.97198,215.83333333333334,458.97198C221.33928571428572,458.97198,221.33928571428572,466.04568,226.8452380952381,466.04568C227.94642857142858,466.04568,227.94642857142858,458.0064,229.04761904761907,458.0064C230.14880952380952,458.0064,230.14880952380952,486.56454,231.25,486.56454C234.55357142857144,486.56454,234.55357142857144,502.227,237.85714285714286,502.227C243.36309523809524,502.227,243.36309523809524,464.208,248.86904761904765,464.208C253.27380952380955,464.208,253.27380952380955,456.56999999999994,257.67857142857144,456.56999999999994C258.7797619047619,456.56999999999994,258.7797619047619,456.798,259.88095238095235,456.798C260.9821428571429,456.798,260.9821428571429,462.1389,262.08333333333337,462.1389C266.48809523809524,462.1389,266.48809523809524,461.8824,270.8928571428571,461.8824C277.5,461.8824,277.5,458.05199999999996,284.1071428571429,458.05199999999996C287.41071428571433,458.05199999999996,287.41071428571433,463.40999999999997,290.7142857142857,463.40999999999997C295.1190476190476,463.40999999999997,295.1190476190476,467.53338,299.5238095238095,467.53338C300.625,467.53338,300.625,466.0206,301.7261904761905,466.0206C303.92857142857144,466.0206,303.92857142857144,467.40000000000003,306.13095238095235,467.40000000000003C307.2321428571429,467.40000000000003,307.2321428571429,456.342,308.33333333333337,456.342C311.6369047619048,456.342,311.6369047619048,461.928,314.9404761904762,461.928C317.14285714285717,461.928,317.14285714285717,466.602,319.34523809523813,466.602C325.95238095238096,466.602,325.95238095238096,462.555,332.5595238095238,462.555C333.6607142857143,462.555,333.6607142857143,460.84499999999997,334.76190476190476,460.84499999999997C335.86309523809524,460.84499999999997,335.86309523809524,477.79338,336.9642857142857,477.79338C342.4702380952381,477.79338,342.4702380952381,458.736,347.9761904761905,458.736C350.17857142857144,458.736,350.17857142857144,459.192,352.38095238095235,459.192C354.5833333333333,459.192,354.5833333333333,461.71367999999995,356.7857142857143,461.71367999999995C358.98809523809524,461.71367999999995,358.98809523809524,467.96999999999997,361.1904761904762,467.96999999999997C363.39285714285717,467.96999999999997,363.39285714285717,470.13599999999997,365.59523809523813,470.13599999999997C370,470.13599999999997,370,471.46067999999997,374.40476190476187,471.46067999999997C375.50595238095235,471.46067999999997,375.50595238095235,490.33908,376.60714285714283,490.33908C377.7083333333333,490.33908,377.7083333333333,519.84,378.8095238095238,519.84C384.31547619047615,519.84,384.31547619047615,467.058,389.82142857142856,467.058C397.5297619047619,467.058,397.5297619047619,489.76338000000004,405.2380952380953,489.76338000000004C406.3392857142858,489.76338000000004,406.3392857142858,458.28000000000003,407.4404761904762,458.28000000000003C409.64285714285717,458.28000000000003,409.64285714285717,467.058,411.84523809523813,467.058C414.04761904761904,467.058,414.04761904761904,501.83142000000004,416.25,501.83142000000004C417.3511904761905,501.83142000000004,417.3511904761905,486.21,418.45238095238096,486.21C419.55357142857144,486.21,419.55357142857144,464.38356,420.65476190476187,464.38356C426.1607142857143,464.38356,426.1607142857143,463.98,431.6666666666667,463.98C434.9702380952381,463.98,434.9702380952381,457.36686,438.2738095238095,457.36686C442.67857142857144,457.36686,442.67857142857144,459.41429999999997,447.0833333333333,459.41429999999997C448.1845238095238,459.41429999999997,448.1845238095238,466.03086,449.2857142857143,466.03086C460.29761904761904,466.03086,460.29761904761904,501.37086,471.3095238095238,501.37086C476.81547619047615,501.37086,476.81547619047615,458.52281999999997,482.32142857142856,458.52281999999997C484.5238095238095,458.52281999999997,484.5238095238095,463.98,486.7261904761905,463.98C487.82738095238096,463.98,487.82738095238096,461.97132,488.92857142857144,461.97132C490.0297619047619,461.97132,490.0297619047619,459.40632,491.13095238095235,459.40632C494.43452380952385,459.40632,494.43452380952385,458.05199999999996,497.7380952380953,458.05199999999996C498.8392857142858,458.05199999999996,498.8392857142858,462.96426,499.9404761904762,462.96426C501.0416666666667,462.96426,501.0416666666667,475.665,502.14285714285717,475.665C503.24404761904765,475.665,503.24404761904765,464.40636,504.34523809523813,464.40636C506.54761904761904,464.40636,506.54761904761904,478.77720000000005,508.75,478.77720000000005C516.4583333333334,478.77720000000005,516.4583333333334,482.47422,524.1666666666667,482.47422" stroke="#1f77b4" fill="none"/><text font-family="sans-serif" font-size="10" class="labels" x="308.33333333333337" y="456.342" dx="0" dy="-4" text-anchor="middle">Gasto</text></g></g></g><text y="4" x="4" style="font-family: Arial, sans-serif; font-size: 12px; fill: black; font-weight: bold; dominant-baseline: hanging;"/></g><g id="grid"><rect x="0" y="0" width="805" height="600" fill="none" stroke="#ccc"/></g></g></svg>